<svg id="Layer_1" enable-background="new 0 0 512 512" height="512" viewBox="0 0 512 512" width="512" xmlns="http://www.w3.org/2000/svg"><g><g fill="#00c896"><path d="m162.962 332.727c-12.913.007-24.846-6.882-31.303-18.073-6.454-11.18-6.455-24.964-.001-36.143-48.168 27.809-65.115 88.633-37.853 135.854 9.697 17.143 41.427 57.836 100.177 57.839l103.212.003v-139.472z"/><path d="m193.409 7.123c-19.695-.14-70.789 7.079-100.081 58.005l-51.458 89.47 120.903 69.532 66.927-116.358c6.431-11.198 18.352-18.107 31.273-18.125 12.909-.021 24.858 6.849 31.332 18.018-.093-55.619-44.37-100.633-98.896-100.542z"/><path d="m359.846 332.724c12.909 0 24.846-6.893 31.301-18.072 6.464-11.188 6.464-24.966.001-36.146l-67.106-116.254 120.787-69.732 51.602 89.387c29.371 50.881 9.994 98.706-.004 115.675-27.265 47.22-88.414 62.954-136.581 35.142z"/></g><path d="m435.555 332.726-138.361.009-.001-17.657c-.001-13.358-16.153-20.048-25.598-10.601l-87.387 87.398c-5.855 5.856-5.855 15.35.001 21.205l87.386 87.376c9.445 9.447 25.597 2.758 25.598-10.601l.001-17.657 71.586.003c16.61-.001 31.954-8.866 40.258-23.248l87.386-151.379c-16.137 27.396-42.688 35.151-60.869 35.152z" fill="#ebfc55"/><path d="m401.123 404.273-221.269-2.57c-.21 4.092 1.23 8.252 4.356 11.376l87.386 87.376c9.445 9.447 25.597 2.758 25.598-10.601l.001-17.657 71.586.003c16.61-.001 31.954-8.866 40.258-23.248l42.151-73.018c-10.301 17.843-29.469 28.693-50.067 28.339z" fill="#76e967"/><path d="m200.032 216.027-32.197-119.325c-2.157-7.995-10.388-12.728-18.383-10.57l-119.308 32.191c-12.898 3.478-15.152 20.814-3.572 27.475l15.306 8.803-35.692 62.055c-8.28 14.399-8.245 32.12.083 46.488l87.66 151.22c-15.703-27.646-9.189-54.528-.126-70.29l68.971-119.945 15.307 8.802c11.58 6.66 25.431-4.007 21.951-16.904z" fill="#ebfc55"/><path d="m167.835 96.702c-1.006-3.729-3.342-6.733-6.35-8.675l-112.538 190.531c-10.575 17.679-10.726 39.702-.396 57.525l45.379 78.282c-15.703-27.646-9.189-54.528-.126-70.29l68.971-119.945 15.307 8.802c11.58 6.659 25.431-4.008 21.951-16.905z" fill="#76e967"/><path d="m460.115 83.697-15.292 8.827-35.789-61.998c-8.306-14.384-23.655-23.241-40.262-23.241l-174.791.007c31.793.278 51.784 19.395 60.875 35.14l69.185 119.821-15.291 8.829c-11.568 6.68-9.286 24.012 3.618 27.469l119.382 31.983c7.999 2.143 16.221-2.605 18.364-10.604l31.98-119.365c3.459-12.903-10.41-23.546-21.979-16.868z" fill="#ebfc55"/><path d="m460.115 83.697-15.292 8.827-35.789-61.998c-8.306-14.384-23.655-23.241-40.262-23.241l-84.31.003c20.601 0 39.581 11.175 49.573 29.19l108.405 192.913c3.648-1.864 6.531-5.191 7.675-9.46l31.98-119.365c3.458-12.904-10.411-23.547-21.98-16.869z" fill="#76e967"/></g></svg>